<?xml version="1.0" encoding="utf-8"?>
<svg version="1.1" xmlns:xlink="http://www.w3.org/1999/xlink" width="492px" height="331px" xmlns="http://www.w3.org/2000/svg">
  <g transform="matrix(1 0 0 1 -812 -337 )">
    <path d="M 113.337442622951 273.228390243902  C 113.337442622951 271.42  114.886032786885 269.869951219512  116.692721311475 269  L 330.914360655738 269  C 332.721049180328 269.869951219512  334.269639344262 271.42  334.269639344262 273.228390243902  C 334.269639344262 275.036780487805  332.721049180328 276.586829268293  330.914360655738 276  L 116.692721311475 276  C 114.886032786885 276.586829268293  113.337442622951 275.036780487805  113.337442622951 273.228390243902  Z M 42.8765901639344 293.120682926829  C 43.1346885245902 291.053951219512  44.4251803278689 289.762243902439  46.231868852459 289  L 143.018754098361 289  C 144.825442622951 289.762243902439  146.374032786885 291.312292682927  146.374032786885 293.120682926829  C 146.374032786885 294.929073170732  144.825442622951 296.479121951219  143.018754098361 296  L 46.231868852459 296  C 44.4251803278689 296.479121951219  42.8765901639344 294.929073170732  42.8765901639344 293.120682926829  Z M 175.281049180328 293.120682926829  C 175.281049180328 291.053951219512  176.829639344262 289.762243902439  178.636327868852 289  L 419.700196721312 289  C 421.506885245902 289.762243902439  423.055475409836 291.312292682927  423.055475409836 293.120682926829  C 423.055475409836 294.929073170732  421.506885245902 296.479121951219  419.700196721312 296  L 178.636327868852 296  C 176.829639344262 296.479121951219  175.281049180328 294.929073170732  175.281049180328 293.120682926829  Z M 11.9047868852459 293.120682926829  C 11.9047868852459 291.053951219512  13.4533770491803 289.762243902439  15.2600655737705 289  L 29.4554754098361 289  C 31.2621639344262 289.762243902439  32.8107540983607 291.312292682927  32.8107540983607 293.120682926829  C 32.8107540983607 294.929073170732  31.2621639344262 296.479121951219  29.4554754098361 296  L 15.2600655737705 296  C 13.4533770491803 296.479121951219  11.9047868852459 294.929073170732  11.9047868852459 293.120682926829  Z M 339.173508196721 273.228390243902  C 339.173508196721 271.42  340.722098360656 269.869951219512  342.528786885246 269.869951219512  L 352.078426229508 269.869951219512  C 353.885114754098 269.869951219512  355.433704918033 271.42  355.433704918033 273.228390243902  C 355.433704918033 275.036780487805  353.885114754098 276.586829268293  352.078426229508 276.586829268293  L 342.528786885246 276.586829268293  C 340.722098360656 276.586829268293  339.173508196721 275.036780487805  339.173508196721 273.228390243902  Z M 436.218491803279 293.120682926829  C 436.218491803279 291.053951219512  437.767081967213 289.762243902439  439.573770491803 289  L 456.866360655738 289  C 458.673049180328 289.762243902439  460.221639344262 291.312292682927  460.221639344262 293.120682926829  C 460.221639344262 294.929073170732  458.673049180328 296.479121951219  456.866360655738 296  L 439.573770491803 296  C 437.767081967213 296.479121951219  436.218491803279 294.929073170732  436.218491803279 293.120682926829  Z M 329.107672131148 324.38  C 329.107672131148 322.571609756098  330.656262295082 321.02156097561  332.462950819672 321  L 367.822426229508 321  C 369.629114754098 321.02156097561  371.177704918033 322.571609756098  371.177704918033 324.38  C 371.177704918033 326.188390243902  369.629114754098 327.73843902439  367.822426229508 327  L 332.462950819672 327  C 330.656262295082 327.73843902439  329.107672131148 326.188390243902  329.107672131148 324.38  Z M 314.137967213115 324.38  C 314.137967213115 322.571609756098  315.686557377049 321.02156097561  317.493245901639 321.02156097561  L 322.655213114754 321.02156097561  C 324.461901639344 321.02156097561  326.010491803279 322.571609756098  326.010491803279 324.38  C 326.010491803279 326.188390243902  324.461901639344 327.73843902439  322.655213114754 327.73843902439  L 317.493245901639 327.73843902439  C 315.686557377049 327.73843902439  314.137967213115 326.188390243902  314.137967213115 324.38  Z M 185.346885245902 324.38  C 185.346885245902 322.571609756098  186.895475409836 321.02156097561  188.702163934426 321  L 244.709508196721 321  C 246.516196721311 321.02156097561  248.064786885246 322.571609756098  248.064786885246 324.38  C 248.064786885246 326.188390243902  246.516196721311 327.73843902439  244.709508196721 327  L 188.702163934426 327  C 186.895475409836 327.73843902439  185.346885245902 326.188390243902  185.346885245902 324.38  Z M 269.228852459016 324.38  C 269.228852459016 322.571609756098  270.777442622951 321.02156097561  272.584131147541 321  L 307.943606557377 321  C 309.750295081967 321.02156097561  311.298885245902 322.571609756098  311.298885245902 324.38  C 311.298885245902 326.188390243902  309.750295081967 327.73843902439  307.943606557377 327  L 272.584131147541 327  C 270.777442622951 327.73843902439  269.228852459016 326.188390243902  269.228852459016 324.38  Z M 91.3990819672131 273.228390243902  C 91.6571803278689 271.42  92.9476721311476 269.869951219512  94.7543606557377 269.869951219512  L 104.304 269.869951219512  C 106.11068852459 269.869951219512  107.659278688525 271.42  107.659278688525 273.228390243902  C 107.659278688525 275.036780487805  106.11068852459 276.586829268293  104.304 276.586829268293  L 94.7543606557377 276.586829268293  C 92.9476721311476 276.586829268293  91.3990819672131 275.036780487805  91.3990819672131 273.228390243902  Z M 155.14937704918 293.120682926829  C 155.14937704918 291.053951219512  156.697967213115 289.762243902439  158.504655737705 289.762243902439  L 166.247606557377 289.762243902439  C 168.054295081967 289.762243902439  169.602885245902 291.312292682927  169.602885245902 293.120682926829  C 169.602885245902 294.929073170732  168.054295081967 296.479121951219  166.247606557377 296.479121951219  L 158.504655737705 296.479121951219  C 156.697967213115 296.479121951219  155.14937704918 294.929073170732  155.14937704918 293.120682926829  Z M 56.039606557377 74.0471219512195  C 56.039606557377 83.8640975609756  48.0385573770492 91.8726829268292  38.2308196721311 91.8726829268293  C 28.4230819672131 91.8726829268293  20.4220327868852 83.8640975609756  20.4220327868852 74.0471219512195  C 20.4220327868852 64.2301463414634  28.4230819672131 56.2215609756097  38.2308196721311 56.2215609756097  C 48.0385573770492 56.2215609756097  56.039606557377 64.2301463414634  56.039606557377 74.0471219512195  Z M 47.7804590163934 74.3054634146341  C 47.7804590163934 79.4722926829268  43.6508852459016 83.8640975609756  38.2308196721311 83.8640975609756  C 32.8107540983607 83.8640975609756  28.6811803278689 79.4722926829268  28.6811803278689 74.3054634146341  C 28.6811803278689 69.1386341463414  33.0688524590164 64.7468292682926  38.2308196721311 64.7468292682926  C 43.6508852459016 64.7468292682926  47.7804590163934 69.1386341463414  47.7804590163934 74.3054634146341  Z M 197 18  L 209.09193442623 18  C 210.124327868852 17.9870243902439  210.89862295082 18.7620487804878  210.89862295082 19.7954146341463  C 210.89862295082 20.8287804878049  210.124327868852 21.6038048780488  209.09193442623 22  L 197 22  L 197 34.5208780487805  C 196.187016393443 35.554243902439  195.412721311475 36.3292682926829  194.380327868852 36.3292682926829  C 193.34793442623 36.3292682926829  192.573639344262 35.554243902439  193 34.5208780487805  L 193 22  L 179.668721311475 22  C 178.636327868852 21.6038048780488  177.862032786885 20.8287804878049  177.862032786885 19.7954146341463  C 177.862032786885 18.7620487804878  178.636327868852 17.9870243902439  179.668721311475 18  L 193 18  L 193 5.06995121951218  C 192.573639344262 4.03658536585364  193.34793442623 3.26156097560974  194.380327868852 3.26156097560974  C 195.412721311475 3.26156097560974  196.187016393443 4.03658536585364  197 5.06995121951218  L 197 18  Z M 17 164  L 28.9392786885246 164  C 29.7135737704918 163.949951219512  30.2297704918033 164.466634146341  30.2297704918033 165.241658536585  C 30.2297704918033 166.016682926829  29.7135737704918 166.533365853659  28.9392786885246 166  L 17 166  L 17 178.675414634146  C 16.8086557377049 179.45043902439  16.2924590163934 179.967121951219  15.5181639344262 179.967121951219  C 14.743868852459 179.967121951219  14.2276721311475 179.45043902439  15 178.675414634146  L 15 166  L 1.83895081967213 166  C 1.06465573770492 166.533365853659  0.548459016393443 166.016682926829  0.548459016393443 165.241658536585  C 0.548459016393443 164.466634146341  1.06465573770492 163.949951219512  1.83895081967213 164  L 15 164  L 15 151.807902439024  C 14.2276721311475 151.03287804878  14.743868852459 150.516195121951  15.5181639344262 150.516195121951  C 16.2924590163934 150.516195121951  16.8086557377049 151.03287804878  17 151.807902439024  L 17 164  Z M 472.094163934426 96.5228292682927  L 477.772327868852 102.206341463415  C 478.030426229508 102.464682926829  478.030426229508 102.723024390244  477.772327868852 102.981365853659  C 477.514229508197 103.239707317073  477.256131147541 103.239707317073  476.998032786885 102.981365853659  L 471.319868852459 97.2978536585366  L 465.641704918033 102.981365853659  C 465.383606557377 103.239707317073  465.125508196721 103.239707317073  464.867409836066 102.981365853659  C 464.60931147541 102.723024390244  464.60931147541 102.464682926829  464.867409836066 102.206341463415  L 470.545573770492 96.5228292682927  L 464.867409836066 90.8393170731707  C 464.60931147541 90.5809756097561  464.60931147541 90.3226341463415  464.867409836066 90.0642926829268  C 465.125508196721 89.8059512195122  465.383606557377 89.8059512195122  465.641704918033 90.0642926829268  L 471.319868852459 95.7478048780488  L 476.998032786885 90.0642926829268  C 477.256131147541 89.8059512195122  477.514229508197 89.8059512195122  477.772327868852 90.0642926829268  C 478.030426229508 90.3226341463415  478.030426229508 90.5809756097561  477.772327868852 90.8393170731707  L 472.094163934426 96.5228292682927  Z M 360.337573770492 131.140585365854  C 360.595672131148 131.398926829268  360.595672131148 131.398926829268  360.337573770492 131.140585365854  L 355.949901639344 126.748780487805  C 355.691803278689 126.49043902439  355.691803278689 126.49043902439  355.949901639344 126.49043902439  L 356.982295081967 125.457073170732  L 357.240393442623 125.715414634146  L 361.62806557377 130.107219512195  C 361.886163934426 130.36556097561  361.886163934426 130.36556097561  361.62806557377 130.36556097561  C 361.369967213115 130.623902439024  361.111868852459 131.140585365854  360.337573770492 131.140585365854  Z M 369.887213114754 140.44087804878  C 370.403409836066 140.182536585366  370.661508196721 139.924195121951  371.177704918033 139.407512195122  L 375.56537704918 143.799317073171  L 374.532983606557 144.832682926829  L 374.274885245902 144.832682926829  L 372.468196721312 143.024292682927  L 370.14531147541 140.699219512195  L 369.887213114754 140.44087804878  Z M 371.177704918033 131.140585365854  C 371.177704918033 131.398926829268  370.919606557377 131.398926829268  370.919606557377 131.140585365854  C 370.661508196721 130.882243902439  370.403409836066 130.623902439024  370.14531147541 130.107219512195  L 370.14531147541 129.848878048781  L 374.532983606557 125.457073170732  L 375.56537704918 126.49043902439  L 375.56537704918 126.748780487805  L 371.177704918033 131.140585365854  Z M 360.595672131148 139.149170731707  C 360.595672131148 139.407512195122  360.595672131148 139.407512195122  360.853770491803 139.407512195122  L 361.628065573771 140.182536585366  L 361.628065573771 140.44087804878  L 357.240393442623 144.832682926829  L 356.208 143.799317073171  L 356.208 143.540975609756  L 360.595672131148 139.149170731707  Z M 366.015737704918 122.873658536585  L 366.015737704918 125.715414634146  L 366.015737704918 128.298829268293  C 366.015737704918 128.557170731707  366.015737704918 128.557170731707  365.757639344262 128.557170731707  L 364.467147540984 128.557170731707  C 364.209049180328 128.557170731707  364.209049180328 128.557170731707  364.209049180328 128.298829268293  L 364.209049180328 122.873658536585  C 364.209049180328 122.615317073171  364.209049180328 122.615317073171  364.467147540984 122.615317073171  L 365.757639344262 122.615317073171  C 366.015737704918 122.615317073171  366.015737704918 122.615317073171  366.015737704918 122.873658536585  Z M 356.208 133.724  C 356.982295081967 133.982341463415  358.01468852459 133.982341463415  359.047081967213 133.982341463415  L 359.047081967213 135.274048780488  C 359.047081967213 135.532390243902  359.047081967213 135.532390243902  358.788983606558 135.532390243902  L 353.368918032787 135.532390243902  C 353.110819672131 135.532390243902  353.110819672131 135.532390243902  353.110819672131 135.274048780488  L 353.110819672131 133.982341463415  C 353.110819672131 133.724  353.110819672131 133.724  353.368918032787 133.724  L 356.208 133.724  Z M 378.662557377049 133.982341463415  C 378.404459016394 133.982341463415  378.662557377049 133.982341463415  378.662557377049 133.982341463415  L 378.662557377049 135.274048780488  C 378.662557377049 135.532390243902  378.662557377049 135.532390243902  378.404459016394 135.532390243902  L 372.984393442623 135.532390243902  C 372.726295081967 135.532390243902  372.726295081967 135.532390243902  372.726295081967 135.274048780488  L 372.726295081967 133.982341463415  C 372.726295081967 133.724  372.726295081967 133.724  372.984393442623 133.724  L 375.823475409836 133.724  C 376.597770491803 133.982341463415  377.372065573771 133.982341463415  378.662557377049 133.982341463415  Z M 366.015737704918 142.507609756098  L 366.015737704918 145.091024390244  L 366.015737704918 147.932780487805  C 366.015737704918 148.19112195122  366.015737704918 148.19112195122  365.757639344262 148.19112195122  L 364.467147540984 148.19112195122  C 364.209049180328 148.19112195122  364.209049180328 148.19112195122  364.209049180328 147.932780487805  L 364.209049180328 142.507609756098  C 364.209049180328 142.249268292683  364.209049180328 142.249268292683  364.467147540984 142.249268292683  L 365.757639344262 142.249268292683  C 366.015737704918 142.249268292683  366.015737704918 142.249268292683  366.015737704918 142.507609756098  Z M 491.193442622951 166.791707317073  C 491.193442622951 172.73356097561  486.289573770492 177.383707317073  480.611409836066 177.383707317073  C 474.675147540984 177.383707317073  470.02937704918 172.475219512195  470.02937704918 166.791707317073  C 470.02937704918 160.849853658537  474.933245901639 156.199707317073  480.611409836066 156.199707317073  C 486.547672131148 156.199707317073  491.193442622951 161.108195121951  491.193442622951 166.791707317073  Z M 474.675147540984 166.791707317073  C 474.933245901639 170.150146341463  477.514229508197 172.73356097561  480.611409836066 172.73356097561  C 483.96668852459 172.73356097561  486.547672131148 170.150146341463  486.547672131148 166.791707317073  C 486.547672131148 163.433268292683  483.96668852459 160.849853658537  480.611409836066 160.849853658537  C 477.256131147541 160.849853658537  474.675147540984 163.433268292683  474.675147540984 166.791707317073  Z M 361.111868852459 50.2797073170732  C 361.111868852459 57.7716097560975  354.917508196721 63.9718048780488  347.432655737705 63.9718048780488  C 339.947803278689 63.9718048780488  333.753442622951 57.7716097560975  333.753442622951 50.2797073170732  C 333.753442622951 42.7878048780488  339.947803278689 36.5876097560975  347.432655737705 36.5876097560975  C 354.917508196721 36.5876097560975  361.111868852459 42.7878048780488  361.111868852459 50.2797073170732  Z M 339.431606557377 50.0213658536585  C 339.431606557377 54.1548292682927  342.786885245902 57.7716097560975  347.174557377049 57.7716097560975  C 351.562229508197 57.7716097560975  354.917508196721 54.4131707317073  354.917508196721 50.0213658536585  C 354.917508196721 45.6295609756097  351.562229508197 42.2711219512195  347.174557377049 42.2711219512195  C 342.786885245902 42.2711219512195  339.431606557377 45.6295609756097  339.431606557377 50.0213658536585  Z M 314.654163934426 203.217853658537  C 328.849573770492 168.85843902439  312.58937704918 129.590536585366  278.262295081967 115.381756097561  C 243.935213114754 101.172975609756  204.704262295082 117.448487804878  190.508852459016 151.807902439024  C 176.313442622951 186.167317073171  192.573639344262 225.435219512195  226.900721311475 239.644  C 261.227803278689 253.852780487805  300.458754098361 237.577268292683  314.654163934426 203.217853658537  Z M 292.973901639344 152.066243902439  C 293.232 153.616292682927  292.715803278689 155.166341463415  291.683409836066 156.199707317073  L 248.839081967213 205.801268292683  C 247.032393442623 207.868  243.677114754098 208.384682926829  241.354229508197 206.576292682927  L 213.995803278689 185.908975609756  C 211.672918032787 184.100585365854  211.156721311475 180.742146341463  212.963409836066 178.158731707317  C 214.770098360656 175.575317073171  218.12537704918 175.316975609756  220.706360655738 177.125365853659  L 243.935213114754 194.692585365854  L 283.424262295082 148.966146341463  C 285.489049180328 146.641073170732  288.844327868852 146.382731707317  291.167213114754 148.449463414634  C 292.199606557377 149.482829268293  292.973901639344 150.774536585366  292.973901639344 152.066243902439  Z " fill-rule="nonzero" fill="#50d1c9" stroke="none" transform="matrix(1 0 0 1 812 337 )" />
  </g>
</svg>