<?xml version="1.0" encoding="utf-8"?>
<svg version="1.1" xmlns:xlink="http://www.w3.org/1999/xlink" width="17px" height="15px" xmlns="http://www.w3.org/2000/svg">
  <g transform="matrix(1 0 0 1 -612 -141 )">
    <path d="M 15.7857142857143 1.24837451235371  L 15.7857142857143 4.99349804941482  C 16.1209077380952 4.99349804941482  16.4070870535714 5.11540962288687  16.6442522321429 5.35923276983095  C 16.8814174107143 5.60305591677503  17 5.89726918075423  17 6.24187256176853  C 17 6.58647594278283  16.8814174107143 6.88068920676203  16.6442522321429 7.12451235370611  C 16.4070870535714 7.36833550065019  16.1209077380952 7.49024707412224  15.7857142857143 7.49024707412224  L 15.7857142857143 11.2353706111834  C 15.7857142857143 11.5734720416125  15.6655505952381 11.8660598179454  15.4252232142857 12.1131339401821  C 15.1848958333333 12.3602080624187  14.9002976190476 12.4837451235371  14.5714285714286 12.4837451235371  C 11.9341517857143 10.2275682704811  9.36644345238095 8.99219765929779  6.86830357142857 8.777633289987  C 6.5014880952381 8.90117035110533  6.21372767857143 9.11573472041612  6.00502232142857 9.42132639791938  C 5.79631696428571 9.72691807542263  5.69828869047619 10.0536410923277  5.7109375 10.4014954486346  C 5.72358630952381 10.7493498049415  5.85007440476191 11.0500650195059  6.09040178571429 11.3036410923277  C 5.96391369047619 11.5182054616385  5.89118303571429 11.731144343303  5.87220982142857 11.9424577373212  C 5.85323660714286 12.1537711313394  5.87220982142857 12.3423276983095  5.92912946428571 12.5081274382315  C 5.98604910714286 12.6739271781534  6.09198288690476 12.8527308192458  6.24693080357143 13.0445383615085  C 6.4018787202381 13.2363459037711  6.55366443452381 13.3988946684005  6.70228794642857 13.5321846553966  C 6.85091145833333 13.6654746423927  7.04538690476191 13.8296488946684  7.28571428571429 14.0247074122237  C 7.10230654761905 14.4018205461638  6.74972098214286 14.6716514954486  6.22795758928571 14.834200260078  C 5.70619419642857 14.9967490247074  5.1733630952381 15.0341352405722  4.62946428571429 14.9463589076723  C 4.08556547619048 14.8585825747724  3.66815476190476 14.6781534460338  3.37723214285714 14.4050715214564  C 3.33296130952381 14.2555266579974  3.23967633928571 13.971066319896  3.09737723214286 13.5516905071521  C 2.955078125 13.1323146944083  2.85388764880952 12.8250975292588  2.79380580357143 12.6300390117035  C 2.73372395833333 12.4349804941482  2.66099330357143 12.1456436931079  2.57561383928571 11.7620286085826  C 2.490234375 11.3784135240572  2.44280133928571 11.0500650195059  2.43331473214286 10.7769830949285  C 2.423828125 10.5039011703511  2.43489583333333 10.1836801040312  2.46651785714286 9.81631989596879  C 2.49813988095238 9.44895968790637  2.56770833333333 9.08972691807542  2.67522321428571 8.73862158647594  L 1.51785714285714 8.73862158647594  C 1.10044642857143 8.73862158647594  0.74311755952381 8.58582574772432  0.445870535714286 8.28023407022107  C 0.148623511904762 7.97464239271781  0 7.6072821846554  0 7.17815344603381  L 0 5.30559167750325  C 0 4.87646293888166  0.148623511904762 4.50910273081924  0.445870535714286 4.20351105331599  C 0.74311755952381 3.89791937581274  1.10044642857143 3.74512353706112  1.51785714285714 3.74512353706112  L 6.07142857142857 3.74512353706112  C 8.82254464285714 3.74512353706112  11.6558779761905 2.49674902470741  14.5714285714286 0  C 14.9002976190476 0  15.1848958333333 0.123537061118334  15.4252232142857 0.370611183355007  C 15.6655505952381 0.617685305591676  15.7857142857143 0.910273081924576  15.7857142857143 1.24837451235371  Z M 7.28571428571429 7.55851755526658  C 9.67001488095238 7.83159947984395  12.0985863095238 8.94018205461638  14.5714285714286 10.8842652795839  L 14.5714285714286 1.57997399219766  C 12.0796130952381 3.54356306892068  9.65104166666667 4.65864759427828  7.28571428571429 4.92522756827048  L 7.28571428571429 7.55851755526658  Z " fill-rule="nonzero" fill="#db6b3a" stroke="none" transform="matrix(1 0 0 1 612 141 )" />
  </g>
</svg>