<?xml version="1.0" encoding="utf-8"?>
<svg version="1.1" xmlns:xlink="http://www.w3.org/1999/xlink" width="59px" height="67px" xmlns="http://www.w3.org/2000/svg">
  <g transform="matrix(1 0 0 1 -459 -190 )">
    <path d="M 59 37.9277059921875  C 58.9701954059734 52.0478608574219  39.919537449115 67  29.705428079646 67  C 19.491318710177 67  0.507858881637168 52.0478608574219  1 37.9108641943359  L 1 9.77834195703125  L 3.26298051106195 9.73792165527344  C 7.83789098653695 9.53535918336255  12.3516386809031 8.6053253010844  16.6354000188053 6.98260521484375  C 20.6477658135366 5.44975117051644  24.488020045844 3.49769703627987  28.0926739789823 1.15871501171875  L 28.1262730431416 1.15871501171875  C 28.5797663951114 0.66666153017508  29.1285131058199 0.272403626215921  29.7390271438053 0  C 30.3709412193969 0.249705741150982  30.9350535230552 0.645577818071723  31.3853803086283 1.15534662597656  L 31.4189793727876 1.17555680957031  C 35.0154008723599 3.52885979558444  38.857229191932 5.48171406006414  42.8762533329646 6.99944701269531  C 47.1600146708668 8.62216709893596  51.673762365233 9.5522009812141  56.248672840708 9.754763453125  L 59 9.79518375488281  L 59 37.9277059921875  Z M 29.8062252721239 4.96495903613281  L 29.705428079646 5.02222113574219  C 26.0335120732822 7.20253052096736  22.1905084622688 9.07930007139189  18.2145550553097 10.6339048037109  C 13.9651151900589 12.2415210709151  9.527352667067 13.2954527224502  5.01013080309734 13.7698456269531  L 5 13.7900558105469  L 5 38.1399125273438  C 4.84213554756637 49.8415866474609  22.5488317212389 63.2442813691406  29.8062252721239 63.2442813037109  C 37.0636188230089 63.2442812382813  54.7367159325221 49.8415866474609  54 38.1399125273438  L 54 13.7698456269531  L 54.5351216128319 13.7698456269531  C 50.0307790279698 13.2839093574894  45.6055719037355 12.230278517714  41.3642963595133 10.6339048037109  C 37.3781549703909 9.1040762281645  33.5331978829803 7.22747975035683  29.873423335177 5.02558945605469  L 29.8062252721239 4.96495903613281  Z M 16.8705933373894 26.7211804541016  L 13.3426936891593 26.7211804541016  L 13.3426936891593 20  L 27.5550892787611 20  L 27.4206930873894 19.5566839140625  C 27.1749639950738 18.9197035354679  26.8829899612362 18.3016380158607  26.5471180066372 17.7074556484375  L 30.3438099723451 17.1011512529297  C 30.5790032909292 17.7748227744141  30.9149937367257 18.6910160410156  31.1837860542035 19.6846815253906  L 31.2173851183628 20  L 45.6313749623894 20  L 45.6313749623894 26.5190790107422  L 42.1706734424779 26.5190790107422  L 42.1706734424779 23  L 16.8705933373894 23  L 16.8705933373894 26.7211804541016  Z M 27.9582778528761 51.0003016591797  L 27.9582778528761 51.0205117773438  L 27.9582778528761 43.8223317070313  L 20.2976957931416 43.8223317070313  L 20.2976957931416 45.7321904580078  L 17 45.7321904580078  L 17 28  L 27.9582778528761 28  L 27.9582778528761 24.7136393017578  L 31.5533754988938 24.7136393017578  L 31.5533754988938 28  L 42 28  L 42 45.6176662587891  L 39.3147546858407 45.6176662587891  L 39.3147546858407 43.8257000927734  L 31.5533754988938 43.8257000927734  L 31.5533754988938 51.0003016591797  L 27.9582778528761 51.0003016591797  Z M 31.5533754988938 37.2910864521484  L 31.5533754988938 40.7335478261719  L 39.3147546858407 40.7335478261719  L 39.3147546858407 37.2910864521484  L 31.5533754988938 37.2910864521484  Z M 20.2976957931416 37.2910864521484  L 20.2976957931416 40.7335478261719  L 27.9582778528761 40.7335478261719  L 27.9582778528761 37.2910864521484  L 20.2976957931416 37.2910864521484  Z M 31.5533754988938 34.3168267050781  L 31.5533754988938 34.3336685029297  L 39.3147546858407 34.3336685029297  L 39.3147546858407 30.7901563417969  L 31.5533754988938 30.7901563417969  L 31.5533754988938 34.3168267050781  Z M 20.2976957931416 34.3168267050781  L 20.2976957931416 34.3336685029297  L 27.9582778528761 34.3336685029297  L 27.9582778528761 30.7901563417969  L 20.2976957931416 30.7901563417969  L 20.2976957931416 34.3168267050781  Z " fill-rule="nonzero" fill="#ffffff" stroke="none" transform="matrix(1 0 0 1 459 190 )" />
  </g>
</svg>