<?xml version="1.0" encoding="utf-8"?>
<svg version="1.1" xmlns:xlink="http://www.w3.org/1999/xlink" width="33px" height="22px" xmlns="http://www.w3.org/2000/svg">
  <g transform="matrix(1 0 0 1 -102 -138 )">
    <path d="M 17.1875 12.7330729166667  L 25.4088541666667 10.140625  L 25.6666666666667 14.6666666666667  C 25.7048611111111 15.3255208333333  25.3133680555556 15.9366319444444  24.4921875 16.5  C 23.6710069444444 17.0633680555556  22.5490451388889 17.509765625  21.1263020833333 17.8391927083333  C 19.7035590277778 18.1686197916667  18.1614583333333 18.3333333333333  16.5 18.3333333333333  C 14.8385416666667 18.3333333333333  13.2964409722222 18.1686197916667  11.8736979166667 17.8391927083333  C 10.4509548611111 17.509765625  9.32899305555556 17.0633680555556  8.5078125 16.5  C 7.68663194444445 15.9366319444444  7.29513888888889 15.3255208333333  7.33333333333333 14.6666666666667  L 7.59114583333333 10.140625  L 15.8125 12.7330729166667  C 16.0225694444444 12.7999131944444  16.2517361111111 12.8333333333333  16.5 12.8333333333333  C 16.7482638888889 12.8333333333333  16.9774305555556 12.7999131944444  17.1875 12.7330729166667  Z M 32.6848958333333 5.05598958333333  C 32.8949652777778 5.13237847222222  33 5.28038194444444  33 5.5  C 33 5.71961805555555  32.8949652777778 5.86762152777778  32.6848958333333 5.94401041666667  L 16.6432291666667 10.9856770833333  C 16.6050347222222 10.9952256944444  16.5572916666667 11  16.5 11  C 16.4427083333333 11  16.3949652777778 10.9952256944444  16.3567708333333 10.9856770833333  L 7.01822916666667 8.03515625  C 6.60763888888889 8.35980902777778  6.26866319444445 8.89214409722222  6.00130208333333 9.63216145833333  C 5.73394097222222 10.3721788194444  5.57161458333333 11.2243923611111  5.51432291666667 12.1888020833333  C 6.11588541666667 12.5325520833333  6.41666666666667 13.0529513888889  6.41666666666667 13.75  C 6.41666666666667 14.4088541666667  6.13975694444444 14.9197048611111  5.5859375 15.2825520833333  L 6.41666666666667 21.484375  C 6.43576388888889 21.6180555555556  6.39756944444445 21.7374131944444  6.30208333333333 21.8424479166667  C 6.21614583333333 21.9474826388889  6.1015625 22  5.95833333333333 22  L 3.20833333333333 22  C 3.06510416666667 22  2.95052083333333 21.9474826388889  2.86458333333333 21.8424479166667  C 2.76909722222222 21.7374131944444  2.73090277777778 21.6180555555556  2.75 21.484375  L 3.58072916666667 15.2825520833333  C 3.02690972222222 14.9197048611111  2.75 14.4088541666667  2.75 13.75  C 2.75 13.0529513888889  3.06032986111111 12.5230034722222  3.68098958333333 12.16015625  C 3.78602430555556 10.18359375  4.25390625 8.60807291666667  5.08463541666667 7.43359375  L 0.315104166666667 5.94401041666667  C 0.105034722222222 5.86762152777778  0 5.71961805555555  0 5.5  C 0 5.28038194444444  0.105034722222222 5.13237847222222  0.315104166666667 5.05598958333333  L 16.3567708333333 0.0143229166666659  C 16.3949652777778 0.00477430555555447  16.4427083333333 0  16.5 0  C 16.5572916666667 0  16.6050347222222 0.00477430555555447  16.6432291666667 0.0143229166666659  L 32.6848958333333 5.05598958333333  Z " fill-rule="nonzero" fill="#ffffff" stroke="none" transform="matrix(1 0 0 1 102 138 )" />
  </g>
</svg>