<?xml version="1.0" encoding="utf-8"?>
<svg version="1.1" xmlns:xlink="http://www.w3.org/1999/xlink" width="30px" height="28px" xmlns="http://www.w3.org/2000/svg">
  <g transform="matrix(1 0 0 1 -1022 -366 )">
    <path d="M 0 6  L 15 0  L 30 6  L 30 8  L 28 8  C 28 8.27083333333333  27.8932291666667 8.50520833333333  27.6796875 8.703125  C 27.4661458333333 8.90104166666666  27.2135416666667 9  26.921875 9  L 3.078125 9  C 2.78645833333333 9  2.53385416666667 8.90104166666666  2.3203125 8.703125  C 2.10677083333333 8.50520833333333  2 8.27083333333333  2 8  L 0 8  L 0 6  Z M 4 22  L 4 10  L 8 10  L 8 22  L 10 22  L 10 10  L 14 10  L 14 22  L 16 22  L 16 10  L 20 10  L 20 22  L 22 22  L 22 10  L 26 10  L 26 22  L 26.921875 22  C 27.2135416666667 22  27.4661458333333 22.0989583333333  27.6796875 22.296875  C 27.8932291666667 22.4947916666667  28 22.7291666666667  28 23  L 28 24  L 2 24  L 2 23  C 2 22.7291666666667  2.10677083333333 22.4947916666667  2.3203125 22.296875  C 2.53385416666667 22.0989583333333  2.78645833333333 22  3.078125 22  L 4 22  Z M 1.078125 25  L 28.921875 25  C 29.2135416666667 25  29.4661458333333 25.0989583333333  29.6796875 25.296875  C 29.8932291666667 25.4947916666667  30 25.7291666666667  30 26  L 30 28  L 0 28  L 0 26  C 0 25.7291666666667  0.106770833333333 25.4947916666667  0.3203125 25.296875  C 0.533854166666667 25.0989583333333  0.786458333333333 25  1.078125 25  Z " fill-rule="nonzero" fill="#b5b5b5" stroke="none" transform="matrix(1 0 0 1 1022 366 )" />
  </g>
</svg>