<?xml version="1.0" encoding="utf-8"?>
<svg version="1.1" xmlns:xlink="http://www.w3.org/1999/xlink" width="153px" height="101px" xmlns="http://www.w3.org/2000/svg">
  <g transform="matrix(1 0 0 1 -252 -180 )">
    <path d="M 73.73583984375 72.9554036458333  C 75.57861328125 71.0923394097222  76.5 68.7580295138889  76.5 65.9524739583333  C 76.5 63.1469184027778  76.27587890625 60.5715060763889  75.82763671875 58.2262369791667  C 75.37939453125 55.8809678819444  74.644775390625 53.6233723958333  73.623779296875 51.4534505208333  C 72.602783203125 49.2835286458333  71.09619140625 47.5738932291667  69.10400390625 46.3245442708333  C 67.11181640625 45.0751953125  64.6962890625 44.4505208333333  61.857421875 44.4505208333333  C 61.55859375 44.6258680555556  60.8115234375 45.0203993055556  59.6162109375 45.6341145833333  C 58.4208984375 46.2478298611111  57.487060546875 46.7190755208333  56.814697265625 47.0478515625  C 56.142333984375 47.3766276041667  55.25830078125 47.7601996527778  54.16259765625 48.1985677083333  C 53.06689453125 48.6369357638889  51.99609375 48.9547526041667  50.9501953125 49.1520182291667  C 49.904296875 49.3492838541667  48.8583984375 49.4479166666667  47.8125 49.4479166666667  C 46.7666015625 49.4479166666667  45.720703125 49.3492838541667  44.6748046875 49.1520182291667  C 43.62890625 48.9547526041667  42.55810546875 48.6369357638889  41.46240234375 48.1985677083333  C 40.36669921875 47.7601996527778  39.482666015625 47.3766276041667  38.810302734375 47.0478515625  C 38.137939453125 46.7190755208333  37.2041015625 46.2478298611111  36.0087890625 45.6341145833333  C 34.8134765625 45.0203993055556  34.06640625 44.6258680555556  33.767578125 44.4505208333333  C 30.9287109375 44.4505208333333  28.51318359375 45.0751953125  26.52099609375 46.3245442708333  C 24.52880859375 47.5738932291667  23.022216796875 49.2835286458333  22.001220703125 51.4534505208333  C 20.980224609375 53.6233723958333  20.24560546875 55.8809678819444  19.79736328125 58.2262369791667  C 19.34912109375 60.5715060763889  19.125 63.1469184027778  19.125 65.9524739583333  C 19.125 68.7580295138889  20.04638671875 71.0923394097222  21.88916015625 72.9554036458333  C 23.73193359375 74.8184678819444  25.998046875 75.75  28.6875 75  L 66.9375 75  C 69.626953125 75.75  71.89306640625 74.8184678819444  73.73583984375 72.9554036458333  Z M 59.802978515625 42.3134765625  C 63.114990234375 39.3983289930555  64.77099609375 35.8804253472222  64.77099609375 31.759765625  C 64.77099609375 27.6391059027778  63.114990234375 24.1212022569444  59.802978515625 21.2060546875  C 56.490966796875 18.2909071180555  52.494140625 16.8333333333333  47.8125 16.8333333333333  C 43.130859375 16.8333333333333  39.134033203125 18.2909071180555  35.822021484375 21.2060546875  C 32.510009765625 24.1212022569444  30.85400390625 27.6391059027778  30.85400390625 31.759765625  C 30.85400390625 35.8804253472222  32.510009765625 39.3983289930555  35.822021484375 42.3134765625  C 39.134033203125 45.2286241319444  43.130859375 46.6861979166667  47.8125 46.6861979166667  C 52.494140625 46.6861979166667  56.490966796875 45.2286241319444  59.802978515625 42.3134765625  Z M 133.20263671875 66.7415364583333  C 133.65087890625 66.3470052083333  133.875 65.8428819444444  133.875 65.2291666666667  L 133.875 61.0208333333333  C 133.875 60.4071180555555  133.65087890625 59.9029947916667  133.20263671875 59.5084635416667  C 132.75439453125 59.1139322916667  132.181640625 58.9166666666667  131.484375 59  L 88.453125 59  C 87.755859375 58.9166666666667  87.18310546875 59.1139322916667  86.73486328125 59.5084635416667  C 86.28662109375 59.9029947916667  86.0625 60.4071180555555  86.0625 61.0208333333333  L 86.0625 65.2291666666667  C 86.0625 65.8428819444444  86.28662109375 66.3470052083333  86.73486328125 66.7415364583333  C 87.18310546875 67.1360677083333  87.755859375 67.3333333333333  88.453125 67  L 131.484375 67  C 132.181640625 67.3333333333333  132.75439453125 67.1360677083333  133.20263671875 66.7415364583333  Z M 133.090576171875 49.8095703125  C 133.613525390625 49.3492838541667  133.875 48.7903645833333  133.875 48.1328125  L 133.875 44.4505208333333  C 133.875 43.79296875  133.613525390625 43.2340494791667  133.090576171875 42.7737630208333  C 132.567626953125 42.3134765625  131.9326171875 42.0833333333333  131.185546875 42  L 88.751953125 42  C 88.0048828125 42.0833333333333  87.369873046875 42.3134765625  86.846923828125 42.7737630208333  C 86.323974609375 43.2340494791667  86.0625 43.79296875  86.0625 44.4505208333333  L 86.0625 48.1328125  C 86.0625 48.7903645833333  86.323974609375 49.3492838541667  86.846923828125 49.8095703125  C 87.369873046875 50.2698567708333  88.0048828125 50.5  88.751953125 50  L 131.185546875 50  C 131.9326171875 50.5  132.567626953125 50.2698567708333  133.090576171875 49.8095703125  Z M 133.20263671875 33.0748697916667  C 133.65087890625 32.6803385416667  133.875 32.1762152777778  133.875 31.5625  L 133.875 27.3541666666667  C 133.875 26.7404513888889  133.65087890625 26.236328125  133.20263671875 25.841796875  C 132.75439453125 25.447265625  132.181640625 25.25  131.484375 26  L 88.453125 26  C 87.755859375 25.25  87.18310546875 25.447265625  86.73486328125 25.841796875  C 86.28662109375 26.236328125  86.0625 26.7404513888889  86.0625 27.3541666666667  L 86.0625 31.5625  C 86.0625 32.1762152777778  86.28662109375 32.6803385416667  86.73486328125 33.0748697916667  C 87.18310546875 33.4694010416667  87.755859375 33.6666666666667  88.453125 34  L 131.484375 34  C 132.181640625 33.6666666666667  132.75439453125 33.4694010416667  133.20263671875 33.0748697916667  Z M 149.48876953125 3.09049479166667  C 151.82958984375 5.15082465277777  153 7.62760416666667  153 10.5208333333333  L 153 90.4791666666667  C 153 93.3723958333333  151.82958984375 95.8491753472222  149.48876953125 97.9095052083333  C 147.14794921875 99.9698350694444  144.333984375 101  141.046875 101  L 114.75 101  L 114.75 94.6875  C 114.75 94.0737847222222  114.52587890625 93.5696614583333  114.07763671875 93.1751302083333  C 113.62939453125 92.7805989583333  113.056640625 92.5833333333333  112.359375 92.5833333333333  L 107.578125 92.5833333333333  C 106.880859375 92.5833333333333  106.30810546875 92.7805989583333  105.85986328125 93.1751302083333  C 105.41162109375 93.5696614583333  105.1875 94.0737847222222  105.1875 94.6875  L 105.1875 101  L 47.8125 101  L 47.8125 94.6875  C 47.8125 94.0737847222222  47.58837890625 93.5696614583333  47.14013671875 93.1751302083333  C 46.69189453125 92.7805989583333  46.119140625 92.5833333333333  45.421875 92.5833333333333  L 40.640625 92.5833333333333  C 39.943359375 92.5833333333333  39.37060546875 92.7805989583333  38.92236328125 93.1751302083333  C 38.47412109375 93.5696614583333  38.25 94.0737847222222  38.25 94.6875  L 38.25 101  L 11.953125 101  C 8.666015625 101  5.85205078125 99.9698350694444  3.51123046875 97.9095052083333  C 1.17041015625 95.8491753472222  0 93.3723958333333  0 90.4791666666667  L 0 10.5208333333333  C 0 7.62760416666667  1.17041015625 5.15082465277777  3.51123046875 3.09049479166667  C 5.85205078125 1.03016493055555  8.666015625 0  11.953125 0  L 141.046875 0  C 144.333984375 0  147.14794921875 1.03016493055555  149.48876953125 3.09049479166667  Z " fill-rule="nonzero" fill="#ffffff" stroke="none" transform="matrix(1 0 0 1 252 180 )" />
  </g>
</svg>