<?xml version="1.0" encoding="utf-8"?>
<svg version="1.1" xmlns:xlink="http://www.w3.org/1999/xlink" width="33px" height="33px" xmlns="http://www.w3.org/2000/svg">
  <g transform="matrix(1 0 0 1 -1432 -247 )">
    <path d="M 26.696825375 13.2873015982143  C 26.6968254077381 5.97724868452381  20.7835978690476 0.0640211785714286  13.4735449880952 0.0640211785714286  C 6.16349207440476 0.0640211785714286  0.250264535714286 5.97724868452381  0.250264535714286 13.2873015982143  C 0.250264535714286 20.5973545119048  6.16349204166667 26.5105820178571  13.4735449553571 26.5105820178571  C 20.7835978690476 26.5105820178571  26.696825375 20.5973545119048  26.696825375 13.2873015982143  Z M 23.7634920744048 13.2873015982143  C 23.7634920744048 18.967724875  19.153968264881 23.5772486845238  13.4735449880952 23.5772486845238  C 7.79312171130953 23.5772486845238  3.18359790178572 18.967724875  3.18359790178572 13.2873015982143  C 3.18359786904762 7.60687832142857  7.79312167857143 2.99735451190476  13.4735449880952 2.99735451190476  C 19.153968264881 2.99735451190476  23.7634920744048 7.60687832142857  23.7634920744048 13.2873015982143  Z M 14.0788360297619 6.90846560119048  C 14.0788360297619 6.11693120238095  13.4269841160714 5.55820106547619  12.63544975 5.55820106547619  C 8.81746033928571 5.55820106547619  5.74444445535714 8.63121694940476  5.74444445535714 12.449206360119  C 5.74444445535714 13.1941799196429  6.34973546428571 13.8460317678571  7.14126986309524 13.8460317678571  C 7.88624342261905 13.8460317678571  8.53809527083333 13.2407407589286  8.53809527083333 12.449206360119  C 8.53809527083333 10.167724875  10.4005291369048 8.30529100892857  12.6820106220238 8.30529100892857  C 13.4269841815476 8.30529100892857  14.0788360297619 7.7  14.0788360297619 6.90846560119048  Z M 32.3772486845238 32.0047619047619  C 32.8894179821429 31.5391534464286  32.8894179821429 30.747619047619  32.3772486845238 30.23544975  L 25.8587301696429 23.716931235119  C 25.3931217113095 23.2513227767857  24.6015873125 23.2513227767857  24.089418014881 23.716931235119  L 23.4841270059524 24.3222222440476  C 23.018518547619 24.787830702381  23.018518547619 25.5793651011905  23.4841270059524 26.0915343988095  L 30.0026455208333 32.6100529136905  C 30.4682539791667 33.0756613720238  31.2597883779762 33.0756613720238  31.7719576755952 32.6100529136905  L 32.3772486845238 32.0047619047619  Z " fill-rule="nonzero" fill="#0096ff" stroke="none" transform="matrix(1 0 0 1 1432 247 )" />
  </g>
</svg>